<svg id="Layer_1" data-name="Layer 1" xmlns="http://www.w3.org/2000/svg" viewBox="0 0 237.803 149.627">
  <defs>
    <style>
      .cls-1 {
        fill: #fff;
      }

      .cls-2 {
        fill: #4d4d4d;
      }

      .cls-3 {
        fill: #666;
      }

      .cls-4 {
        fill: #333;
      }
    </style>
  </defs>
  <title>LOGO MAGNO GRIS</title>
  <g>
    <g>
      <ellipse class="cls-1" cx="117.873" cy="75.915" rx="117.255" ry="73.462"/>
      <path class="cls-2" d="M253.55,72.241a50.56,50.56,0,0,0-6.806-13.313,59.291,59.291,0,0,0-9.5-12.438A82.167,82.167,0,0,0,226.9,37.921a164.411,164.411,0,0,0-25.466-13.94,152.2,152.2,0,0,0-26.548-8.352,229.846,229.846,0,0,0-26.832-4.122c-3.28.748-12.815,0.085-23.422,0.479-10.6.249-22.226,1.817-29.225,4.038a58.426,58.426,0,0,0-9.822,3.111c-1.48.7-.879,0.815,2.732-0.035-6.468,1.825-8.877,2.5-11.045,3.039a53.675,53.675,0,0,0-9.206,3.4l3.278-2.05c-1.759.621-3.645,1.206-5.6,2.011-0.983.394-2.008,0.786-3.042,1.26s-2.09,1.009-3.179,1.58l-0.728.479c-0.435.291-1,.707-1.568,1.11l-2.264,1.619a66.137,66.137,0,0,0-14.488,9.733A119.978,119.978,0,0,0,27.627,54.414c3.233-3.556,2.6-2.629,1.328-.9l-1.033,1.4c-0.344.485-.647,0.991-0.914,1.416-0.526.858-.835,1.454-0.566,1.32-0.189.2-.437,0.494-0.723,0.839-0.27.356-.562,0.779-0.876,1.225-0.605.906-1.361,1.87-1.87,2.794-1.083,1.808-1.853,3.057-1.224,1.674A44.432,44.432,0,0,0,16.64,80.822a100.008,100.008,0,0,0-.267,13.456s0.053,0.281.134,0.7c0.1,0.419.26,0.97,0.407,1.523l0.6,2.2c0.644,1.839,1.111,3.618,1.789,5.264,0.324,0.827.577,1.667,0.925,2.457l1.008,2.362c0.306,0.8.712,1.537,1.08,2.3s0.731,1.53,1.145,2.275c0.872,1.459,1.666,3.006,2.724,4.447l0.886,0.578c0.705,0.94,1.633,2.013,2.623,3.179,0.953,1.2,2.1,2.371,3.183,3.583s2.253,2.306,3.243,3.374c1.017,1.04,1.978,1.922,2.679,2.674a81.217,81.217,0,0,0,16.622,11.221,131.815,131.815,0,0,0,18.726,7.8,57.327,57.327,0,0,0,6.2,2.21,23.464,23.464,0,0,0,3.028.672c0.815,0.1,1.6.168,2.862,0.391,0.631,0.11,1.381.258,2.315,0.467,0.937,0.194,2.067.414,3.442,0.725a117.438,117.438,0,0,0,12.752,2.6l6.284,0.905c1.875,0.238,3.453.481,4.525,0.736-4.959-.481-7.8-0.661-10.721-0.843-1.454-.137-2.926-0.286-4.683-0.53s-3.779-.69-6.352-1.282c1.931,0.618-2.447-.28-6.151-1.149-3.686-.923-6.748-1.65-2.267-0.117a216.542,216.542,0,0,0,32.315,5.42c5.571,0.52,11.118.652,16.425,0.655a135.458,135.458,0,0,0,15.008-1c-0.326.282,0.959,0.362,3.2,0.269,2.233-.158,5.432-0.415,8.9-0.959,1.737-.228,3.537-0.549,5.324-0.891l2.666-.5,2.575-.577c3.367-.712,6.322-1.584,8.306-2.1l0.579,0.126c1.707-.453,3.311-0.852,4.906-1.314,1.586-.491,3.182-0.979,4.887-1.548a110.328,110.328,0,0,0,12.288-5.14,123.184,123.184,0,0,0,31.637-20.832,58.869,58.869,0,0,0,8.472-9.823,53.16,53.16,0,0,0,5.759-11.314A46.8,46.8,0,0,0,251.033,94.9c0.074-1.573.211-2.993,0.178-4.252-0.058-1.249-.106-2.336-0.147-3.228a54.227,54.227,0,0,1-2.646,14.532,56,56,0,0,1-6.055,12.681,60.181,60.181,0,0,1-8.236,10.221c-0.749.734-1.529,1.419-2.284,2.106a29.878,29.878,0,0,1-2.323,1.936c-0.789.606-1.557,1.212-2.347,1.766q-1.207.8-2.394,1.549c1.378-1.054,2.61-1.972,3.632-2.893s1.987-1.669,2.754-2.462l2.133-2.125c0.626-.672,1.169-1.327,1.706-1.95a59.212,59.212,0,0,0,6.444-9.423l-0.5.7a18,18,0,0,1-1.159,1.506l-1.75,2.136,1.223-1.88,0.837-1.29c0.205-.365.343-0.608,0.343-0.608-1.5,1.713,1.345-3.413.662-3.017l-1.323,2.1-0.643,1.017-0.789,1.093c-0.561.75-1.1,1.587-1.74,2.358l-1.861,2.278c-0.6.722-1.223,1.35-1.724,1.912l-1.232,1.342-0.5.484c6.13-6.1,2.578-1.672,1.1.49l-0.959.907c-0.582.537-1.326,1.284-2.122,1.98l-2.212,1.886c-0.6.522-1.018,0.842-1.018,0.842,1.609-1.131,5.627-4.5,1.14-.237a69.135,69.135,0,0,1-9.515,6.933l0.817-.684c0.492-.408,1.145-0.951,1.763-1.539l2.5-2.292a58.323,58.323,0,0,1-12,7.633c-4.076,2.03-8.26,3.782-12.916,6.111l-3.237.413s-0.561.241-1.415,0.568l-3.152,1.157c-1.14.438-2.3,0.81-3.177,1.093l-1.452.476,0.963-.61s-2.784.9-5.623,1.632l-2.075.566-1.827.433-1.783.421c-6.145,1.551-7.016,2.057-8.07,2.542-2.414.453-4.783,0.914-6.813,1.189l-2.73.388c-0.8.086-1.466,0.128-1.966,0.142l0.877-.177c0.527-.1,1.227-0.25,1.922-0.422l2.782-.656-2.611.3c-1.3.168-2.614,0.255-2.614,0.255,3.594-.255-4.313.836-5.6,1.087-5.891.459-7.988,0.416-9.525,0.476-1.539.02-2.534-.085-6.234-0.227-1.912.074-3.935,0.048-5.9,0.023-1.961-.07-3.861-0.2-5.536-0.29-3.345-.252-5.787-0.461-6.036-0.142a181.62,181.62,0,0,1-40.8-9.469s-1.408-.375-2.783-0.841l-2.77-.892a168.723,168.723,0,0,1-17.035-8.821,83.352,83.352,0,0,1-15.565-11.648l1.033,0.738-1.03-.894c-0.606-.547-1.476-1.227-2.237-2l-2.161-2.088-0.926-1a80.738,80.738,0,0,1-7.941-12.07c-0.46-.983-0.989-1.96-1.424-3.022-0.4-1.074-.881-2.174-1.249-3.39l-0.532-1.895-0.274-1-0.194-1.054q-0.19-1.073-.4-2.232c-0.1-.779-0.143-1.6-0.218-2.441-0.041-.455-0.105-0.9-0.13-1.341s-0.021-.875-0.032-1.3c-0.008-.852-0.086-1.673-0.049-2.467,0.093-1.585.06-3.064,0.265-4.425q0.1-1.025.2-1.978c0.084-.633.21-1.236,0.3-1.823s0.183-1.153.269-1.7l0.349-1.559c0.382-2.025.914-3.7,1.263-5.227,0.443-1.491.813-2.8,1.145-4.008A44.444,44.444,0,0,1,30.5,56.243a87.174,87.174,0,0,1,7.964-8.188l-1.447,1.63L36.021,50.8c-0.275.3-.44,0.515-0.44,0.515s0.247-.24.645-0.574L37.665,49.5c1.024-.921,2.128-1.757,2.128-1.757,0.884-.8,1.657-1.513,2.376-2.137L44.2,43.979c1.221-1.014,2.348-1.769,3.515-2.618,2.352-1.674,5.026-3.531,10.419-6.754l2.661-1.39,2.322-1.132,1.969-.995,1.689-.812c1.031-.506,1.878-0.951,2.6-1.351s1.333-.709,1.861-1.023c1.058-.622,1.82-1.156,2.739-1.734A34.688,34.688,0,0,1,77.7,24.288s0.995-.318,2.514-0.706,3.521-.971,5.563-1.407l2.983-.685,2.62-.516,2.553-.5-0.4-.093c2.34-.8,3.989-1.267,5.477-1.682,1.493-.389,2.848-0.627,4.617-0.943a186.971,186.971,0,0,1,20.483-2.136l-1.1-.5c1.983,0.06,3.676.034,5.263-.028,1.587-.02,3.07-0.093,4.623-0.185,1.555-.118,3.181-0.127,5.058-0.179s4,0.006,6.543.136c2.493,0.093,7.533.719,13.006,1.522,5.469,0.87,11.355,1.96,15.7,2.59,8.662,2.211,15.041,3.98,21.082,5.891A93.609,93.609,0,0,1,212.742,32.7c7.827,4.922,13.553,8.353,14.351,10.19l-1.307-1.03,1.052,1.425,0.714,0.977,0.306,0.461,0.736-.229c2.009,1.9,4.493,4.188,6.637,6.656,0.537,0.615,1.08,1.216,1.583,1.828l1.387,1.853a22.633,22.633,0,0,1,2.13,3.445l0.361,0.413c0.223,0.268.578,0.627,0.93,1.109l1.248,1.624a23.548,23.548,0,0,1,1.383,1.907c0.9,1.331,1.806,2.673,2.368,3.746l1,1.762q-0.53-1.068-1.055-2.2-0.262-.564-0.53-1.139l-0.6-1.126q-0.6-1.138-1.213-2.3l-1.361-2.262,0.034,0.4c-0.225-.353-0.492-0.769-0.79-1.233l-1.068-1.459-1.21-1.648c-0.43-.563-0.911-1.115-1.373-1.687l-1.392-1.7L235.649,50.9l-1.27-1.455-1.113-1.2,0.545,0.485c0.33,0.288.766,0.678,1.171,1.1l1.658,1.648c-3.522-4.067-.268-0.976.84,0.08,3.411,4.227,4.5,5.873,5.581,7.143a36.353,36.353,0,0,1,3.968,5.994c0.76,1.734,2.127,5.047,1.415,3.906a47.639,47.639,0,0,1,2.99,10.407c0.224,0.955.266,1.9,0.4,2.762,0.092,0.863.26,1.644,0.283,2.323a5.968,5.968,0,0,0,.4,2.35c-0.023.426-.032,0.593-0.053,0.98a7.521,7.521,0,0,0,.788-1.975,16.716,16.716,0,0,0,.619-3.333,28.672,28.672,0,0,0,.17-4.49c-0.033-.828-0.043-1.707-0.126-2.6Q253.736,73.669,253.55,72.241Z" transform="translate(-16.268 -11.507)"/>
    </g>
    <g>
      <g>
        <path class="cls-3" d="M46.08,109.908v-0.781h2.292c1.744,0,2.772.767,2.772,4.348,0,1.913-.1,4.335-2.747,4.335H46.08v-0.781h0.7v-7.12h-0.7Zm1.576,7.12h0.716c1.054,0,1.86-.273,1.86-3.553,0-3.306-.885-3.567-1.653-3.567H47.655v7.12Z" transform="translate(-16.268 -11.507)"/>
        <path class="cls-3" d="M54.715,109.127h4.231v0.781H55.587v2.865h2.772v0.78H55.587v3.476h3.359v0.781H54.715v-8.683Z" transform="translate(-16.268 -11.507)"/>
        <path class="cls-3" d="M62.919,109.127h2.343a2.1,2.1,0,0,1,1.938,2.3,2.385,2.385,0,0,1-1.5,2.446l1.8,3.724-0.781.377-1.953-4.035H63.792v3.866H62.919v-8.683Zm0.873,4.036h1.276c0.754,0,1.223-.56,1.223-1.731a1.288,1.288,0,0,0-1.433-1.523H63.792v3.254Z" transform="translate(-16.268 -11.507)"/>
        <path class="cls-3" d="M74.105,109.127H75.2l0.26,8.683H74.536l-0.17-7.237H74.339l-1.484,4.361-1.483-4.361H71.346l-0.169,7.237H70.266l0.26-8.683h1.081l1.249,3.685Z" transform="translate(-16.268 -11.507)"/>
        <path class="cls-3" d="M83.4,113.462c0,1.093.039,4.465-2.409,4.465-2.473,0-2.408-3.345-2.408-4.465,0-1.433.092-4.452,2.408-4.452C83.444,109.01,83.4,112.317,83.4,113.462Zm-3.906,0c0,2.343.274,3.645,1.5,3.645,1.511,0,1.5-2.135,1.5-3.645,0-1.64.041-3.632-1.5-3.632S79.5,112.186,79.5,113.462Z" transform="translate(-16.268 -11.507)"/>
        <path class="cls-3" d="M87.274,109.127H91.5v0.781H88.146v2.865h2.772v0.78H88.146v3.476H91.5v0.781H87.274v-8.683Z" transform="translate(-16.268 -11.507)"/>
        <path class="cls-3" d="M98.525,111.106a1.333,1.333,0,0,0-1.2-1.276,1.194,1.194,0,0,0-1.145,1.393c0,0.7.143,0.925,1.509,1.745,1.067,0.639,1.8,1.172,1.8,2.512a2.173,2.173,0,0,1-2.187,2.448c-1.536,0-2.1-1.015-2.226-2.4l0.872-.116c0.118,0.962.326,1.692,1.381,1.692a1.31,1.31,0,0,0,1.288-1.55c0-1.145-.741-1.536-1.639-2.056-1-.586-1.667-1-1.667-2.278a2.035,2.035,0,1,1,4.061-.247Z" transform="translate(-16.268 -11.507)"/>
        <path class="cls-3" d="M105,109.908h-1.874v-0.781h4.581v0.781h-1.835v7.9H105v-7.9Z" transform="translate(-16.268 -11.507)"/>
        <path class="cls-3" d="M112.279,109.127h4.232v0.781h-3.359v2.865h2.773v0.78h-2.773v3.476h3.359v0.781h-4.232v-8.683Zm3.333-1.445-2.434,1.068-0.338-.574,2.3-1.315Z" transform="translate(-16.268 -11.507)"/>
        <path class="cls-3" d="M122.451,109.908h-1.874v-0.781h4.582v0.781h-1.836v7.9h-0.872v-7.9Z" transform="translate(-16.268 -11.507)"/>
        <path class="cls-3" d="M130.564,109.908h-1.171v-0.781h3.228v0.781h-1.185v7.12h1.185v0.781h-3.228v-0.781h1.171v-7.12Z" transform="translate(-16.268 -11.507)"/>
        <path class="cls-3" d="M141.582,116.508a2.664,2.664,0,0,1-2.252,1.419c-2.265,0-2.6-2.734-2.6-4.452s0.339-4.465,2.6-4.465a2.367,2.367,0,0,1,2.121,1.407l-0.741.442a1.6,1.6,0,0,0-1.38-1.028c-1.589,0-1.692,2.5-1.692,3.645s0.1,3.632,1.692,3.632a1.976,1.976,0,0,0,1.536-1.094Z" transform="translate(-16.268 -11.507)"/>
        <path class="cls-3" d="M146.1,115.128l-0.676,2.851-0.86-.234,2.2-8.618h1.043l2.2,8.618-0.86.234-0.676-2.851H146.1Zm1.2-4.842h-0.025l-0.963,4.061h1.95Z" transform="translate(-16.268 -11.507)"/>
        <path class="cls-3" d="M162.382,115.128l-0.676,2.851-0.859-.234,2.2-8.618h1.042l2.2,8.618-0.858.234-0.676-2.851h-2.371Zm1.2-4.842h-0.027l-0.962,4.061h1.951Z" transform="translate(-16.268 -11.507)"/>
        <path class="cls-3" d="M173.5,108.959l0.886,0.182-2.578,8.839H171.6l-2.578-8.839,0.887-.182,1.8,6.5Z" transform="translate(-16.268 -11.507)"/>
        <path class="cls-3" d="M178.662,115.128l-0.678,2.851-0.858-.234,2.2-8.618h1.042l2.2,8.618-0.858.234-0.677-2.851h-2.369Zm1.2-4.842h-0.027l-0.962,4.061h1.951Z" transform="translate(-16.268 -11.507)"/>
        <path class="cls-3" d="M185.723,109.127h1.092l2.577,7.3,0.026-.026-0.037-1.94v-5.337h0.871v8.683h-1.094l-2.577-7.315-0.025.025,0.038,1.966v5.324h-0.871v-8.683Z" transform="translate(-16.268 -11.507)"/>
        <path class="cls-3" d="M197.259,109.908h-3.308v-0.781h4.622l-3.672,7.9h3.776v0.781h-5.1Z" transform="translate(-16.268 -11.507)"/>
        <path class="cls-3" d="M203.082,115.128l-0.677,2.851-0.859-.234,2.2-8.618h1.041l2.2,8.618-0.859.234-0.677-2.851h-2.369Zm1.2-4.842h-0.027l-0.963,4.061h1.951Z" transform="translate(-16.268 -11.507)"/>
        <path class="cls-3" d="M210.05,109.908v-0.781h2.293c1.744,0,2.771.767,2.771,4.348,0,1.913-.1,4.335-2.747,4.335H210.05v-0.781h0.705v-7.12H210.05Zm1.576,7.12h0.717c1.054,0,1.859-.273,1.859-3.553,0-3.306-.885-3.567-1.653-3.567h-0.923v7.12Z" transform="translate(-16.268 -11.507)"/>
        <path class="cls-3" d="M219.36,115.128l-0.676,2.851-0.858-.234,2.2-8.618h1.041l2.2,8.618-0.859.234-0.676-2.851H219.36Zm1.2-4.842h-0.026l-0.963,4.061h1.951Z" transform="translate(-16.268 -11.507)"/>
      </g>
      <g>
        <path class="cls-4" d="M66.224,96.165c0.028-.518.042-0.8,0.042-0.859a2.241,2.241,0,0,1,.122-0.452c0.081-.245.164-0.5,0.246-0.777a6.641,6.641,0,0,1,.285-0.777,1.837,1.837,0,0,0,.166-0.45,44.673,44.673,0,0,0,.982-5.281q0.324-2.659.653-5.362V81.39c0-.545-0.025-1.365-0.081-2.456s-0.109-2.347-.164-3.768-0.108-2.89-.163-4.418-0.11-3-.164-4.421-0.11-2.673-.163-3.764S67.9,60.652,67.9,60.107c-0.057-.272-0.178-0.82-0.37-1.638a14.563,14.563,0,0,0-.449-1.636,2.967,2.967,0,0,0-.818-0.818,3.068,3.068,0,0,0-.452.818c-0.19.438-.313,0.709-0.368,0.819A13.949,13.949,0,0,0,65,59.287c-0.192.82-.313,1.366-0.368,1.639q-0.082.573-.327,2.331t-0.574,4.135q-0.329,2.374-.7,4.994t-0.7,4.993q-0.327,2.375-.612,4.133t-0.37,2.333a7.224,7.224,0,0,1-.2,1.145q-0.2.9-.491,1.965t-0.532,2.007c-0.164.628-.3,1.1-0.408,1.432-0.058.109-.179,0.381-0.371,0.816a3.077,3.077,0,0,1-.451.821,1.771,1.771,0,0,1-.407.449c-0.22.193-.357,0.315-0.409,0.369a2.592,2.592,0,0,1-.41.082,2.58,2.58,0,0,1-.41-0.082c-0.055-.054-0.192-0.176-0.408-0.369a1.778,1.778,0,0,1-.411-0.449c-0.109-.165-0.273-0.451-0.49-0.86a2.519,2.519,0,0,1-.327-0.777,13.159,13.159,0,0,1-.206-1.31c-0.081-.656-0.164-1.378-0.244-2.17s-0.164-1.555-.248-2.291-0.123-1.269-.123-1.6c-0.054-.544-0.123-1.557-0.2-3.029s-0.163-3.041-.247-4.707-0.163-3.233-.245-4.708-0.122-2.508-.122-3.112l-0.82,1.639c0,0.438.014,1.242,0.042,2.416s0.041,2.414.041,3.724-0.015,2.538-.041,3.684-0.042,1.964-.042,2.456q0,0.492-.122,1.964T52.8,86.505q-0.124,1.679-.247,3.233t-0.206,2.293a7.37,7.37,0,0,1-.122,1.145q-0.124.738-.245,1.514t-0.246,1.434a4.136,4.136,0,0,1-.2.819,1.006,1.006,0,0,1-.328.369q-0.327.286-.493,0.449a3.1,3.1,0,0,1-.817.451c-0.437.192-.71,0.314-0.819,0.367a2.36,2.36,0,0,1-.409.082,1.3,1.3,0,0,1-.41-0.082,3.955,3.955,0,0,1-.941-0.818,5.664,5.664,0,0,1-.7-0.818c0-.054-0.015-0.273-0.039-0.657s-0.042-.681-0.042-0.9,0.012-.544.042-0.981,0.039-.684.039-0.736a6.809,6.809,0,0,1,.247-1.187c0.165-.626.34-1.309,0.531-2.047s0.369-1.432.534-2.087,0.272-1.064.327-1.228c0-.109.039-0.452,0.123-1.024s0.165-1.2.245-1.881,0.165-1.364.245-2.046,0.151-1.216.206-1.6,0.123-1.01.2-1.882,0.164-1.787.246-2.743,0.164-1.841.246-2.661,0.123-1.391.123-1.717l1.637-24.559a7.417,7.417,0,0,1,.86.778,7.273,7.273,0,0,1,.776.86c0,0.054.042,0.286,0.123,0.694s0.164,0.874.247,1.393,0.165,1.038.245,1.556,0.15,0.941.206,1.268c0.051,0.709.176,1.831,0.366,3.356s0.371,3.112.534,4.748,0.313,3.165.45,4.584,0.23,2.374.287,2.864q0,0.492.122,2.538t0.245,4.42q0.126,2.374.246,4.42t0.2,2.538a5.335,5.335,0,0,0,.328,1.187,12.9,12.9,0,0,0,.491,1.27,2.032,2.032,0,0,0,.37.45,1.908,1.908,0,0,0,.45.368,2.443,2.443,0,0,0,.409.082,0.651,0.651,0,0,0,.2-0.041,0.658,0.658,0,0,1,.2-0.04,13.144,13.144,0,0,0,.451-1.638c0.192-.819.313-1.364,0.371-1.637,0.053-.217.122-0.574,0.2-1.064s0.165-1,.248-1.515,0.163-.995.244-1.432a5.744,5.744,0,0,0,.122-0.9q0.412-3.6.7-7.2t0.7-7.245q0.406-3.641,1.021-7.2a55.711,55.711,0,0,1,1.679-7,10.343,10.343,0,0,1,.327-0.984c0.165-.435.328-0.872,0.492-1.31a11.987,11.987,0,0,1,.492-1.145c0.164-.328.272-0.545,0.328-0.656a3.949,3.949,0,0,1,.775-0.49,2.282,2.282,0,0,1,.861-0.328,1,1,0,0,1,.367.328c0.191,0.218.34,0.381,0.449,0.489,0.11,0.163.274,0.45,0.492,0.858a2.515,2.515,0,0,1,.327.778c0.056,0.272.137,0.694,0.247,1.266s0.2,1.158.286,1.758,0.149,1.158.205,1.676,0.082,0.856.082,1.021V94.416a3.2,3.2,0,0,0,.082.573q0.081,0.408.206,0.941t0.285,1.021c0.107,0.327.19,0.572,0.246,0.735a2.615,2.615,0,0,0,.368.491A0.762,0.762,0,0,0,72,98.5a2.684,2.684,0,0,0,.817-0.367c0.437-.247.71-0.395,0.821-0.448a1.668,1.668,0,0,1,.532-0.126c0.244-.026.395-0.04,0.449-0.04a5.672,5.672,0,0,1-1.187,3.68,4.211,4.211,0,0,1-3.479,1.47H68.72a9.282,9.282,0,0,1-.858-0.368,3.153,3.153,0,0,1-.777-0.45,3.47,3.47,0,0,1-.451-1.105q-0.289-.94-0.367-1.352c0-.052-0.014-0.339-0.042-0.858s-0.041-.914-0.041-1.187S66.2,96.684,66.224,96.165Z" transform="translate(-16.268 -11.507)"/>
        <path class="cls-4" d="M75.965,97.024a2.522,2.522,0,0,1,.122-0.9A6.4,6.4,0,0,1,76.5,95.1c0.219-.464.464-0.954,0.736-1.474s0.533-1.01.778-1.474,0.422-.778.533-0.943c0.165-.216.5-0.6,1.023-1.145s1.077-1.132,1.679-1.759,1.186-1.2,1.759-1.719,1-.888,1.269-1.1a4.967,4.967,0,0,1,1.021-.369q0.943-.286,1.435-0.451c0.162-.054.437-0.121,0.819-0.205s0.789-.163,1.226-0.245S89.62,84.05,90,83.968a4.584,4.584,0,0,1,.818-0.123q0-.408.042-1.638t0.04-1.637V79.753q0-.572-0.04-1.106c-0.028-.353-0.042-0.668-0.042-0.941V77.3a2.881,2.881,0,0,0-.326-0.819A3.849,3.849,0,0,0,90,75.659a2.619,2.619,0,0,0-.408-0.081,0.69,0.69,0,0,0-.2.04,0.64,0.64,0,0,1-.2.041,4.482,4.482,0,0,1-.123.819c-0.082.382-.165,0.793-0.246,1.229s-0.163.846-.247,1.228-0.15.654-.2,0.818c-0.109.219-.26,0.532-0.45,0.941a4.193,4.193,0,0,1-.368.7c-0.055,0-.275.028-0.657,0.081a6.981,6.981,0,0,1-.98.082,7.519,7.519,0,0,1-.94-0.082c-0.41-.053-0.643-0.081-0.7-0.081a3.476,3.476,0,0,1-.9-0.7,2.46,2.46,0,0,1-.737-0.941c0-.055-0.013-0.273-0.04-0.656s-0.041-.681-0.041-0.9,0.013-.545.041-0.982,0.04-.682.04-0.736a0.987,0.987,0,0,1,.327-0.368q0.326-.287.491-0.451c0.218-.164.642-0.449,1.269-0.859s1.024-.667,1.187-0.777c0.218-.108.559-0.286,1.022-0.533l1.474-.776q0.778-.41,1.475-0.737c0.462-.217.778-0.355,0.939-0.408h0.82c0.217,0.108.533,0.244,0.941,0.408a1.5,1.5,0,0,1,.694.41c0.055,0.108.191,0.355,0.411,0.735a4.062,4.062,0,0,1,.409.9,14.016,14.016,0,0,1,.451,1.637q0.286,1.228.368,1.638c0.054,0.275.124,0.709,0.2,1.31s0.164,1.255.246,1.964,0.163,1.379.246,2.006a12.345,12.345,0,0,1,.122,1.268,9.388,9.388,0,0,1,2.455,0,2.06,2.06,0,0,1,.451.369,1.985,1.985,0,0,1,.368.45,1.955,1.955,0,0,1-.368.451,2.039,2.039,0,0,1-.451.369L94.914,87.12v8.187a0.776,0.776,0,0,1-.327.449,2.823,2.823,0,0,1-.492.369c-0.437.055-.708,0.08-0.819,0.08a3.152,3.152,0,0,1-.449-0.04,3.234,3.234,0,0,0-.367-0.041c-0.112-.054-0.385-0.178-0.82-0.369a3.184,3.184,0,0,1-.82-0.449,4.735,4.735,0,0,0-.49.654c-0.219.326-.449,0.655-0.7,0.983l-0.737.982a6.617,6.617,0,0,1-.531.654,4.223,4.223,0,0,1-.533.615c-0.246.246-.5,0.5-0.778,0.777s-0.518.506-.735,0.7-0.356.315-.409,0.369c-0.164.11-.4,0.245-0.7,0.41l-0.983.531c-0.356.193-.682,0.355-0.981,0.493a1.915,1.915,0,0,1-.615.2H78.543a2.217,2.217,0,0,1-.613-0.368,7.9,7.9,0,0,1-.778-0.7,8.54,8.54,0,0,1-.7-0.778,2.256,2.256,0,0,1-.368-0.615,2.135,2.135,0,0,1-.122-0.818c-0.028-.491-0.042-0.871-0.042-1.144S75.937,97.57,75.965,97.024ZM90,86.915a4.19,4.19,0,0,0-.818.2,1.318,1.318,0,0,0-.41.2c-0.22.137-.464,0.3-0.735,0.491s-0.534.369-.779,0.533a3.661,3.661,0,0,0-.531.41q-0.165.163-.819,0.777a6.478,6.478,0,0,0-.819.86c-0.11.164-.287,0.4-0.531,0.695s-0.505.628-.778,0.983-0.52.683-.737,0.982a5.429,5.429,0,0,0-.409.615q-0.245.41-.861,1.637T81,96.943c0.054,0,.177.014,0.369,0.041a2.525,2.525,0,0,0,.9,0,3.688,3.688,0,0,1,.368-0.041c0.163-.11.559-0.368,1.187-0.778s1.049-.7,1.268-0.859q0.653-.572,1.638-1.515t1.883-1.883q0.9-.939,1.553-1.6a3.554,3.554,0,0,0,.655-0.734V86.792A6.542,6.542,0,0,0,90,86.915Z" transform="translate(-16.268 -11.507)"/>
        <path class="cls-4" d="M94.667,128.066c0-.109-0.013-0.313-0.041-0.614s-0.04-.506-0.04-0.613c0-.164.013-0.4,0.04-0.7s0.041-.479.041-0.533a0.977,0.977,0,0,1,.328-0.368c0.218-.191.383-0.342,0.491-0.451,0.219-.108.519-0.273,0.9-0.49a2.21,2.21,0,0,1,.738-0.328q0.409,0.164,1.187.574a3.162,3.162,0,0,1,1.022.736q0.653,0.655,1.187,1.228t0.7,0.736a2.136,2.136,0,0,1,0,1.637q0.245,0.493.94,1.76t1.514,2.742q0.819,1.474,1.514,2.742t0.942,1.76a1.917,1.917,0,0,0,.369.45,1.976,1.976,0,0,0,.449.369,2.472,2.472,0,0,0,.409.081,0.691,0.691,0,0,0,.2-0.04,0.635,0.635,0,0,1,.2-0.041q0.082-.33.247-1.269t0.287-2q0.122-1.066.205-1.966c0.053-.6.081-1.038,0.081-1.308v-1.23q0-1.064.042-2.455c0.026-.929.039-1.882,0.039-2.865l0.1-2.208,0.076-3.241c0.127-2.127-.038-11.19-0.066-12.173s-0.076-1.712-.076-2.475l-0.112-1.449c0-.328-0.028-0.913-0.081-1.759s-0.124-1.747-.205-2.7-0.179-1.855-.287-2.7-0.192-1.433-.247-1.759a2,2,0,0,0-.45.368,2.065,2.065,0,0,0-.368.45L106.127,97.6l-1.637,1.637a3.038,3.038,0,0,1-.82.45c-0.438.193-.71,0.315-0.817,0.369-0.437.056-.709,0.083-0.82,0.083s-0.381-.027-0.816-0.083l-1.637-.819a1.889,1.889,0,0,1-.452-0.369,1.952,1.952,0,0,1-.368-0.449c-0.111-.163-0.274-0.452-0.491-0.86a2.523,2.523,0,0,1-.329-0.778c0-.054-0.012-0.34-0.039-0.86s-0.042-.913-0.042-1.187,0.014-.667.042-1.186,0.039-.8.039-0.86q0.166-.653.288-1.062a6.371,6.371,0,0,1,.287-0.778c0.109-.246.19-0.449,0.246-0.613,0.108-.218.258-0.534,0.449-0.943a3.916,3.916,0,0,1,.37-0.7c0.216-.217.531-0.545,0.94-0.982s0.832-.872,1.269-1.309,0.83-.831,1.188-1.187a4.21,4.21,0,0,1,.695-0.616,3.962,3.962,0,0,1,1.024-.245c0.628-.108,1.159-0.218,1.6-0.327a2.466,2.466,0,0,0,1.473-1.065,7.083,7.083,0,0,0,.084-0.737,4.635,4.635,0,0,0-.042-0.49,4.013,4.013,0,0,1-.042-0.409l-0.817-2.456c0-.054-0.014-0.245-0.042-0.573s-0.04-.572-0.04-0.736,0.027-.546.082-1.147a2.813,2.813,0,0,1,.368-0.491,0.783,0.783,0,0,1,.45-0.328c0.055,0,.3-0.013.739-0.041s0.764-.039.982-0.039,0.519,0.014.9,0.039,0.6,0.041.656,0.041a4.451,4.451,0,0,1,.94.779,3.106,3.106,0,0,1,.7.857c0,0.057.013,0.329,0.042,0.82s0.04,0.873.04,1.145-0.014.684-.04,1.228-0.042.847-.042,0.9a2.948,2.948,0,0,1-.245.777c-0.163.41-.355,0.833-0.573,1.269s-0.411.859-.574,1.271a3.09,3.09,0,0,0-.244.776,10.856,10.856,0,0,0-.246,1.146c-0.112.6-.2,1.256-0.288,1.965s-0.15,1.392-.2,2.047-0.082,1.118-.082,1.391V92.44c0,0.273-.014.6-0.042,0.982s-0.04.792-.04,1.228v1.8c0,0.381.013,0.775,0.04,1.188s0.042,0.777.042,1.1v0.491q0,0.738.164,3.111c0.108,1.582-.062,3.519.1,5.646s0.44,14.393.634,16.793,0.587,4.672.777,6.8,0.356,4,.493,5.608,0.232,2.66.286,3.15V142.8a5.677,5.677,0,0,1-.369.942,1.7,1.7,0,0,1-.449.7,7.282,7.282,0,0,1-.736.082,4.39,4.39,0,0,1-.492-0.04,3.978,3.978,0,0,0-.409-0.041,4.569,4.569,0,0,1-1.146-.654,9.906,9.906,0,0,1-1.311-.983l-1.636-1.637c-0.218-.219-0.561-0.6-1.022-1.145s-0.958-1.134-1.474-1.761-1.013-1.215-1.475-1.759-0.777-.9-0.94-1.063L98.76,132.16Zm11.46-41.191q-0.165,0-.818.081a4.87,4.87,0,0,0-.778.7,10.043,10.043,0,0,0-.86.941,3.21,3.21,0,0,0-.451.776,9.274,9.274,0,0,0-.367.862,3.065,3.065,0,0,0-.165.98,3.15,3.15,0,0,0,1.353-.285,12.225,12.225,0,0,0,1.268-.695c0.107-.109.257-0.246,0.45-0.41a1.535,1.535,0,0,0,.368-0.409,5.618,5.618,0,0,0,.45-1.187c0.192-.627.314-1.051,0.369-1.269a3.374,3.374,0,0,1-.369-0.041A3.6,3.6,0,0,0,106.127,86.875Z" transform="translate(-16.268 -11.507)"/>
        <path class="cls-4" d="M118.857,92.851c-0.193.437-.316,0.709-0.37,0.818a8.347,8.347,0,0,0-.205,1.228c-0.083.654-.163,1.35-0.247,2.087s-0.148,1.42-.2,2.046a6.78,6.78,0,0,1-.164,1.186q-0.083.166-.369,0.82a3.1,3.1,0,0,1-.45.819,2,2,0,0,1-.45-0.369,1.9,1.9,0,0,1-.367-0.45,10.625,10.625,0,0,1-.369-1.105q-0.29-.94-0.449-1.351c-0.057-.216-0.166-0.586-0.329-1.1s-0.328-1.092-.49-1.721S114.068,94.541,113.9,94s-0.274-.927-0.328-1.145-0.137-.5-0.245-0.86-0.2-.709-0.288-1.064-0.176-.8-0.286-1.35a0.78,0.78,0,0,1,.328-0.451,2.593,2.593,0,0,1,.491-0.368,3.917,3.917,0,0,1,1.228-.247v3.522c0.108-.057.313-0.177,0.612-0.37a3.783,3.783,0,0,0,.616-0.451l0.817-1.635a9.752,9.752,0,0,1,.86-0.941,5.111,5.111,0,0,1,.777-0.7c0.6-.055.983-0.082,1.145-0.082s0.409,0.014.737,0.041,0.519,0.041.573,0.041q0.244,0.085.859,0.366a3.254,3.254,0,0,1,.777.447,4.088,4.088,0,0,1,.368.692c0.192,0.406.341,0.72,0.452,0.936l0.818,2.44c0.053,0.218.123,0.583,0.2,1.1s0.163,1.084.246,1.708,0.165,1.206.246,1.748a9.429,9.429,0,0,1,.124,1.14c0.216,0.055.64,0.178,1.268,0.366a5.8,5.8,0,0,1,1.186.446,2.159,2.159,0,0,1,.451.368,2.064,2.064,0,0,1,.369.446c0.053,0.435.081,0.706,0.081,0.815s-0.028.4-.081,0.857a2.111,2.111,0,0,1-.369.475,2.028,2.028,0,0,1-.451.386h-2.454c-0.055-.053-0.192-0.178-0.41-0.368s-0.464-.422-0.737-0.7l-0.778-.778a4.413,4.413,0,0,1-.532-0.615l-0.817-1.637-1.637-4.91c-0.056-.11-0.178-0.381-0.368-0.818a3.258,3.258,0,0,0-.451-0.818A3.05,3.05,0,0,0,118.857,92.851Z" transform="translate(-16.268 -11.507)"/>
        <path class="cls-4" d="M129.946,96.125a1.263,1.263,0,0,1,.206-0.409q0.2-.327.49-0.737c0.191-.273.367-0.533,0.531-0.778a3.579,3.579,0,0,1,.411-0.532,6.48,6.48,0,0,1,.818-0.861c0.436-.407.707-0.666,0.818-0.775a7,7,0,0,1,.736-0.41q0.491-.245,1.022-0.533t0.941-.491a1.6,1.6,0,0,1,.573-0.2c0.328-.054.887-0.11,1.678-0.164s1.65-.109,2.58-0.165,1.786-.108,2.579-0.163,1.349-.082,1.677-0.082c0,0.055-.041.286-0.122,0.7a1.978,1.978,0,0,1-.206.694,3.016,3.016,0,0,1-.816.451c-0.437.193-.711,0.314-0.82,0.37-0.108.109-.272,0.259-0.489,0.449a0.994,0.994,0,0,0-.328.369,3.984,3.984,0,0,0-.205.777c-0.083.409-.163,0.831-0.246,1.269s-0.162.858-.246,1.268a5.871,5.871,0,0,0-.123.778q-0.163.411-.447,1.35c-0.2.629-.316,1-0.369,1.1-0.11.112-.274,0.287-0.491,0.533s-0.451.5-.7,0.777a9.785,9.785,0,0,1-.736.738,2.89,2.89,0,0,1-.533.409,7.348,7.348,0,0,1-1.638.572,4.531,4.531,0,0,1-1.636.246,1.863,1.863,0,0,1-.7-0.2c-0.3-.137-0.628-0.3-0.982-0.493s-0.683-.368-0.983-0.531a2.865,2.865,0,0,1-.612-0.41,3.125,3.125,0,0,1-.327-0.492,9.978,9.978,0,0,1-.492-0.94q-0.246-.532-0.491-1.064c-0.163-.355-0.273-0.614-0.328-0.778,0-.054-0.014-0.177-0.04-0.368a3.358,3.358,0,0,1-.041-0.45C129.865,96.834,129.893,96.562,129.946,96.125Zm4.913-3.274a1.985,1.985,0,0,0-.45.368,1.924,1.924,0,0,0-.369.45q-0.082.655-.082,0.818a3.388,3.388,0,0,0,.042.451c0.025,0.192.04,0.314,0.04,0.369l2.455-2.456a2.993,2.993,0,0,1-.366-0.043,3.6,3.6,0,0,0-.452-0.038C135.566,92.77,135.295,92.8,134.859,92.851Zm2.006,2.822a16,16,0,0,0-1.188,1.27,2.457,2.457,0,0,0-.082.41,0.634,0.634,0,0,0,.042.2,0.649,0.649,0,0,1,.04.2q0.163-.081.818-0.368a3.272,3.272,0,0,0,.821-0.45c0.107-.11.27-0.26,0.487-0.45a1,1,0,0,0,.329-0.369c0.053-.436.083-0.709,0.083-0.818a3.491,3.491,0,0,0-.043-0.452,3.349,3.349,0,0,1-.04-0.368A16.132,16.132,0,0,0,136.865,95.673Z" transform="translate(-16.268 -11.507)"/>
        <path class="cls-4" d="M164.276,92.014c0-.218.014-0.532,0.039-0.94s0.043-.642.043-0.7c0.053-.164.174-0.558,0.367-1.187a9.615,9.615,0,0,1,.45-1.272,2.925,2.925,0,0,1,.817-0.82,7.614,7.614,0,0,1,.862.78,7.411,7.411,0,0,1,.776.86,3.9,3.9,0,0,1,.2.656c0.084,0.327.164,0.668,0.247,1.025s0.162,0.7.245,1.024a4.8,4.8,0,0,1,.123.572,2.525,2.525,0,0,1,.163.535,8.689,8.689,0,0,0,.244.86c0.22,0.6.357,0.958,0.411,1.065s0.164,0.3.329,0.576a8.882,8.882,0,0,1,.775,1.107,4.737,4.737,0,0,0,.533.778,3.128,3.128,0,0,0,.777.451,9.135,9.135,0,0,0,.859.369c0.053,0,.369.014,0.941,0.041s0.994,0.04,1.267.04,0.643-.014,1.107-0.04,0.723-.041.778-0.041a3.945,3.945,0,0,0,1.637-1.641c0-.051.012-0.328,0.04-0.819s0.043-.874.043-1.146-0.015-.685-0.043-1.232-0.04-.847-0.04-0.9a1.848,1.848,0,0,0-.205-0.695q-0.205-.45-0.49-0.943c-0.192-.328-0.37-0.641-0.532-0.942s-0.3-.534-0.409-0.7l-4.094-4.1-5.732-4.919q-0.406-.328-1.268-1.19t-1.76-1.762q-0.9-.9-1.678-1.721c-0.521-.545-0.859-0.9-1.023-1.065a0.829,0.829,0,0,1-.327-0.327,7.758,7.758,0,0,1-.49-0.738q-0.248-.411-0.494-0.779a2.869,2.869,0,0,1-.326-0.615A3.135,3.135,0,0,1,159,70.7q-0.287-.656-0.368-0.82c-0.056-.166-0.163-0.477-0.327-0.944s-0.328-.956-0.492-1.475-0.327-1.011-.489-1.474-0.275-.806-0.328-1.028a13.163,13.163,0,0,1-.449-1.638c-0.193-.82-0.315-1.366-0.372-1.638-0.052-.329-0.133-0.754-0.243-1.273s-0.2-1.039-.286-1.557-0.15-.969-0.206-1.351a7.181,7.181,0,0,1-.081-0.738,6.169,6.169,0,0,1,.081-0.7c0.056-.355.123-0.751,0.206-1.188s0.176-.86.286-1.271,0.191-.725.243-0.943c0.057-.164.151-0.436,0.289-0.82s0.285-.793.45-1.23,0.326-.845.491-1.229a5.746,5.746,0,0,1,.408-0.819,1.482,1.482,0,0,1,.371-0.411q0.284-.244.448-0.41c0.163-.108.45-0.272,0.858-0.49a2.576,2.576,0,0,1,.78-0.327h4.91a2.931,2.931,0,0,1,.817.327,3.81,3.81,0,0,1,.818.492l4.095,4.1a2.9,2.9,0,0,1,.656,1.146q0.243,0.738.408,1.4a14.084,14.084,0,0,1,.407,1.885,13.06,13.06,0,0,1,.165,1.311v0.575c0,0.273.013,0.6,0.042,0.983s0.039,0.793.039,1.23v1.639q0,0.494-.039,1.107c-0.029.411-.042,0.78-0.042,1.106v0.739a2.106,2.106,0,0,1-.367.452,2.063,2.063,0,0,1-.451.367,2.371,2.371,0,0,1-.41.084,2.344,2.344,0,0,1-.408-0.084,4.788,4.788,0,0,0-.493-0.41,0.657,0.657,0,0,1-.326-0.409V54.306a1.642,1.642,0,0,0-.369-0.492c-0.244-.274-0.547-0.574-0.9-0.9s-0.727-.669-1.107-1.025-0.68-.641-0.9-0.86a3.809,3.809,0,0,0-.818-0.49,2.89,2.89,0,0,0-.817-0.329q-0.082,0-.7-0.042c-0.408-.027-0.725-0.041-0.94-0.041s-0.533.014-.941,0.041-0.644.042-.7,0.042a5.776,5.776,0,0,0-.941.368,1.687,1.687,0,0,0-.694.451,3.9,3.9,0,0,0-.206.574c-0.083.274-.161,0.587-0.246,0.942s-0.164.7-.245,1.024a3.3,3.3,0,0,0-.123.738q0,0.083-.041,1.025c-0.027.629-.039,1.079-0.039,1.352,0,0.328.012,0.808,0.039,1.434s0.041,1,.041,1.109c0,0.163.027,0.52,0.081,1.064s0.123,1.135.207,1.763,0.175,1.216.286,1.762,0.19,0.93.246,1.149q0.079,0.245.367,1.188a8.965,8.965,0,0,0,.45,1.272q0.324,0.735.943,2.048t1.267,2.664c0.434,0.9.832,1.7,1.186,2.379a3.83,3.83,0,0,0,.7,1.1c0.054,0.055.245,0.261,0.573,0.616s0.707,0.751,1.145,1.188,0.872,0.875,1.313,1.314a13.319,13.319,0,0,0,1.062.983l4.911,4.1,3.275,3.278a9.186,9.186,0,0,1,.858,1.19q0.615,0.943.778,1.269c0.108,0.22.269,0.642,0.492,1.272a5.368,5.368,0,0,1,.324,1.188q0,0.167.043,1.395c0.026,0.82.042,1.449,0.042,1.886v0.9c0,0.327-.016.669-0.042,1.024s-0.043.668-.043,0.943v0.41a2.548,2.548,0,0,1-.324.778c-0.223.411-.384,0.7-0.492,0.861a1.5,1.5,0,0,1-.368.409c-0.192.165-.341,0.3-0.45,0.411a6.672,6.672,0,0,1-.614.532,7.391,7.391,0,0,1-.779.535c-0.272.162-.626,0.356-1.064,0.572h-4.092a4.823,4.823,0,0,1-1.227-.572,6.036,6.036,0,0,1-1.065-.821c-0.439-.438-0.941-0.927-1.514-1.477a7.219,7.219,0,0,1-1.107-1.228,9.356,9.356,0,0,1-.857-1.189c-0.41-.629-0.671-1.052-0.778-1.269a9.5,9.5,0,0,1-.45-1.272c-0.193-.628-0.315-1.025-0.367-1.19,0-.053-0.016-0.285-0.043-0.7S164.276,92.234,164.276,92.014Zm3.355-6.53a0.838,0.838,0,1,1-.655.818A0.659,0.659,0,0,1,167.632,85.484Z" transform="translate(-16.268 -11.507)"/>
        <path class="cls-4" d="M180.074,96.125a1.235,1.235,0,0,1,.2-0.409c0.137-.218.3-0.464,0.492-0.737s0.369-.533.53-0.778a3.712,3.712,0,0,1,.412-0.532,6.39,6.39,0,0,1,.817-0.861c0.436-.407.709-0.666,0.818-0.775a7.022,7.022,0,0,1,.737-0.41c0.328-.164.67-0.341,1.022-0.533s0.668-.354.942-0.491a1.585,1.585,0,0,1,.571-0.2c0.328-.054.889-0.11,1.68-0.164s1.649-.109,2.578-0.165,1.787-.108,2.578-0.163,1.351-.082,1.679-0.082c0,0.055-.042.286-0.121,0.7a2.037,2.037,0,0,1-.207.694,3.032,3.032,0,0,1-.816.451c-0.438.193-.712,0.314-0.819,0.37-0.11.109-.275,0.259-0.491,0.449a0.994,0.994,0,0,0-.328.369,4.061,4.061,0,0,0-.205.777q-0.123.613-.245,1.269c-0.081.437-.163,0.858-0.244,1.268a5.518,5.518,0,0,0-.125.778c-0.109.274-.258,0.723-0.451,1.35a11.492,11.492,0,0,1-.367,1.1c-0.109.112-.273,0.287-0.49,0.533s-0.45.5-.7,0.777a9.114,9.114,0,0,1-.737.738,3.043,3.043,0,0,1-.53.409,7.417,7.417,0,0,1-1.64.572,4.529,4.529,0,0,1-1.635.246,1.867,1.867,0,0,1-.7-0.2c-0.3-.137-0.627-0.3-0.982-0.493s-0.683-.368-0.982-0.531a2.828,2.828,0,0,1-.613-0.41,3.087,3.087,0,0,1-.329-0.492,9.756,9.756,0,0,1-.491-0.94c-0.164-.355-0.326-0.709-0.49-1.064a7.724,7.724,0,0,1-.326-0.778,3.462,3.462,0,0,0-.043-0.368,3.183,3.183,0,0,1-.04-0.45C179.991,96.834,180.017,96.562,180.074,96.125Zm4.911-3.274a1.963,1.963,0,0,0-.452.368,1.9,1.9,0,0,0-.367.45c-0.056.437-.082,0.709-0.082,0.818a3.356,3.356,0,0,0,.041.451c0.025,0.192.041,0.314,0.041,0.369l2.454-2.456a3.056,3.056,0,0,1-.366-0.043,3.619,3.619,0,0,0-.451-0.038C185.694,92.77,185.42,92.8,184.985,92.851Zm2,2.822a16.148,16.148,0,0,0-1.187,1.27,2.519,2.519,0,0,0-.081.41,0.682,0.682,0,0,0,.04.2,0.714,0.714,0,0,1,.041.2q0.163-.081.817-0.368a3.237,3.237,0,0,0,.82-0.45c0.109-.11.272-0.26,0.491-0.45a1,1,0,0,0,.328-0.369c0.054-.436.079-0.709,0.079-0.818a3.2,3.2,0,0,0-.039-0.452,3.118,3.118,0,0,1-.04-0.368A15.325,15.325,0,0,0,186.99,95.673Z" transform="translate(-16.268 -11.507)"/>
        <path class="cls-4" d="M199.506,98.544q-0.126-1.759-.246-3.722c-0.083-1.305-.163-2.534-0.246-3.677s-0.121-1.961-.121-2.453-0.015-1.349-.043-2.575-0.041-2.52-.041-3.882q0-2.123.041-4.005t0.043-2.616c-0.058-.108-0.179-0.381-0.37-0.817a3.153,3.153,0,0,0-.45-0.817,1.757,1.757,0,0,0-.409-0.449c-0.219-.19-0.355-0.312-0.407-0.367h-0.82a5.3,5.3,0,0,1-.86.409,2.629,2.629,0,0,0-.776.407,4.092,4.092,0,0,0-.329.45c-0.162.247-.326,0.519-0.49,0.818a6.631,6.631,0,0,1-.491.777c-0.163.216-.274,0.353-0.326,0.406a7.051,7.051,0,0,1-.738.082,4.35,4.35,0,0,1-.489-0.04c-0.219-.028-0.356-0.042-0.412-0.042a2,2,0,0,1-.448-0.368,1.965,1.965,0,0,1-.368-0.45,3.922,3.922,0,0,0-.043-0.408,4.782,4.782,0,0,1-.041-0.491c0-.109.03-0.355,0.084-0.736,0.055-.053.192-0.176,0.408-0.367a5.333,5.333,0,0,1,.735-0.532c0.275-.164.534-0.314,0.778-0.449s0.421-.231.534-0.287c0.215-.054.638-0.176,1.266-0.367s1.3-.369,2.008-0.532S197.8,71.133,198.4,71s1.034-.231,1.31-0.285c0-.165.013-0.5,0.039-1.023s0.043-.858.043-1.021c0-.27-0.017-0.667-0.043-1.185s-0.039-.805-0.039-0.859q-0.082-.491-0.45-2.532t-0.776-4.415q-0.413-2.372-.779-4.414t-0.448-2.535v-0.49c0-.327-0.016-0.68-0.043-1.062s-0.042-.763-0.042-1.145V48.315q0-.491.042-1.1c0.027-.408.043-0.777,0.043-1.1V45.372a7.007,7.007,0,0,1,.774-0.858,7.42,7.42,0,0,1,.862-0.779c0.434-.053.706-0.082,0.817-0.082a3.592,3.592,0,0,1,.45.04,2.888,2.888,0,0,0,.368.043c0.054,0.056.191,0.177,0.411,0.37a1.787,1.787,0,0,1,.408.448c0.163,0.271.451,0.818,0.859,1.636s0.667,1.362.777,1.634v0.817a9.426,9.426,0,0,0-.328.9c-0.165.493-.342,1.009-0.532,1.554s-0.368,1.063-.53,1.553a4.458,4.458,0,0,0-.246.9v0.492c0,0.271-.014.613-0.042,1.021s-0.041.832-.041,1.267v2.125c0,0.436.013,0.887,0.041,1.349s0.042,0.885.042,1.267v0.653a11.847,11.847,0,0,0,.124,1.267c0.079,0.627.163,1.283,0.244,1.962s0.163,1.335.246,1.962,0.149,1.077.2,1.351,0.179,0.72.37,1.347a3.586,3.586,0,0,0,.45,1.105,3.953,3.953,0,0,0,.7.368c0.409,0.19.723,0.339,0.941,0.449l2.455,0.817c0.217,0.11.532,0.26,0.941,0.451a3.939,3.939,0,0,1,.7.368,1.393,1.393,0,0,1,.082.409,2.737,2.737,0,0,1-.082.407,2.334,2.334,0,0,1-.409.491,1.142,1.142,0,0,1-.409.326h-5.731a2.037,2.037,0,0,0-.244.86q-0.163.857-.285,2c-0.084.763-.151,1.569-0.206,2.413s-0.081,1.539-.081,2.084q0,0.492.124,2.535c0.079,1.361.163,2.833,0.244,4.414s0.176,3.052.285,4.413,0.163,2.207.163,2.535v5.722a2.828,2.828,0,0,1-.816.816,2.4,2.4,0,0,1-.408.083,1.311,1.311,0,0,1-.411-0.083,3.092,3.092,0,0,1-.45-0.778,9.025,9.025,0,0,1-.368-0.857Q199.628,100.3,199.506,98.544Z" transform="translate(-16.268 -11.507)"/>
        <path class="cls-4" d="M206.744,96.125a1.271,1.271,0,0,1,.2-0.409c0.137-.218.3-0.464,0.494-0.737s0.366-.533.529-0.778a3.456,3.456,0,0,1,.411-0.532,6.452,6.452,0,0,1,.817-0.861c0.436-.407.708-0.666,0.818-0.775a6.93,6.93,0,0,1,.737-0.41q0.491-.245,1.023-0.533t0.941-.491a1.582,1.582,0,0,1,.572-0.2c0.328-.054.888-0.11,1.678-0.164s1.65-.109,2.577-0.165,1.79-.108,2.582-0.163,1.348-.082,1.676-0.082c0,0.055-.04.286-0.123,0.7a1.941,1.941,0,0,1-.205.694,2.982,2.982,0,0,1-.816.451c-0.437.193-.712,0.314-0.819,0.37q-0.164.163-.491,0.449a1.008,1.008,0,0,0-.327.369,3.934,3.934,0,0,0-.2.777c-0.085.409-.164,0.831-0.245,1.269s-0.163.858-.246,1.268a5.614,5.614,0,0,0-.124.778c-0.109.274-.257,0.723-0.449,1.35s-0.315,1-.368,1.1c-0.109.112-.275,0.287-0.491,0.533s-0.45.5-.7,0.777a9.117,9.117,0,0,1-.735.738,2.96,2.96,0,0,1-.532.409,7.407,7.407,0,0,1-1.638.572,4.538,4.538,0,0,1-1.637.246,1.863,1.863,0,0,1-.7-0.2c-0.3-.137-0.627-0.3-0.982-0.493s-0.683-.368-0.983-0.531a2.9,2.9,0,0,1-.611-0.41,2.992,2.992,0,0,1-.327-0.492,9.517,9.517,0,0,1-.494-0.94c-0.161-.355-0.327-0.709-0.49-1.064s-0.274-.614-0.326-0.778c0-.054-0.015-0.177-0.041-0.368a3.388,3.388,0,0,1-.041-0.45C206.662,96.834,206.689,96.562,206.744,96.125Zm4.911-3.274a1.985,1.985,0,0,0-.45.368,1.885,1.885,0,0,0-.368.45c-0.056.437-.082,0.709-0.082,0.818a3.2,3.2,0,0,0,.041.451c0.025,0.192.041,0.314,0.041,0.369l2.455-2.456a3.014,3.014,0,0,1-.366-0.043,3.606,3.606,0,0,0-.451-0.038C212.364,92.77,212.092,92.8,211.655,92.851Zm2.006,2.822a15.666,15.666,0,0,0-1.186,1.27,2.39,2.39,0,0,0-.083.41,0.634,0.634,0,0,0,.042.2,0.79,0.79,0,0,1,.041.2c0.108-.054.38-0.177,0.817-0.368a3.2,3.2,0,0,0,.818-0.45q0.164-.165.492-0.45a1,1,0,0,0,.327-0.369c0.052-.436.081-0.709,0.081-0.818a3.259,3.259,0,0,0-.041-0.452,3.118,3.118,0,0,1-.04-0.368A16.249,16.249,0,0,0,213.661,95.673Z" transform="translate(-16.268 -11.507)"/>
      </g>
    </g>
  </g>
</svg>
